<?xml version="1.0" encoding="utf-8"?>
<!-- Generator: Adobe Illustrator 24.0.1, SVG Export Plug-In . SVG Version: 6.00 Build 0)  -->
<svg version="1.1" id="Layer_1" xmlns="http://www.w3.org/2000/svg" xmlns:xlink="http://www.w3.org/1999/xlink" x="0px" y="0px"
	 viewBox="0 0 100 106" style="enable-background:new 0 0 100 106;" xml:space="preserve">
<path d="M47,80c16.5,0,30-13.5,30-30S63.5,20,47,20c-16.3,0-29.5,13-30,29.1c-1.7,0.4-3,2-3,3.9c0,2.2,1.8,4,4,4s4-1.8,4-4
	c0-1.9-1.3-3.4-3-3.9C19.5,34.1,31.8,22,47,22c15.4,0,28,12.6,28,28S62.4,78,47,78c-0.6,0-1,0.4-1,1S46.4,80,47,80z M20,53
	c0,1.1-0.9,2-2,2s-2-0.9-2-2s0.9-2,2-2S20,51.9,20,53z"/>
<path d="M81,20.5c1.2-1.1,2-2.7,2-4.5c0-3.3-2.7-6-6-6s-6,2.7-6,6s2.7,6,6,6c0.8,0,1.6-0.2,2.3-0.5c0,0,0,0.1,0.1,0.1
	C86.2,29.5,90,39.6,90,50c0,23.7-19.3,43-43,43c-0.6,0-1,0.4-1,1s0.4,1,1,1c24.8,0,45-20.2,45-45C92,39.1,88.1,28.7,81,20.5z M73,16
	c0-2.2,1.8-4,4-4s4,1.8,4,4s-1.8,4-4,4S73,18.2,73,16z"/>
<path d="M46,83c0-1.8-2-3.2-5.8-4.1c-0.1,0-0.2,0-0.2,0C38.5,76,35.5,74,32,74c-3.1,0-5.9,1.6-7.5,4.1C15.9,71.2,11,61,11,50
	c0-19.9,16.1-36,36-36s36,16.1,36,36c0,0.6,0.4,1,1,1s1-0.4,1-1c0-21-17-38-38-38S9,29,9,50c0,11.4,5,21.9,13.7,29.2
	c-3,0.9-4.7,2.2-4.7,3.8c0,2,2.5,3.4,6,4.2c1.5,2.9,4.5,4.8,8,4.8s6.5-2,8-4.8C43.5,86.4,46,85,46,83z M32,76c3.9,0,7,3.1,7,7
	c0,0.9-0.2,1.7-0.4,2.4c-1.8,0.3-4,0.6-6.6,0.6s-4.8-0.2-6.6-0.6C25.2,84.7,25,83.9,25,83c0-0.9,0.2-1.7,0.5-2.5
	c0.4-0.2,0.6-0.6,0.5-1.1C27.2,77.4,29.4,76,32,76z M20,83c0-0.4,0.8-1.2,3.2-1.9C23.1,81.7,23,82.3,23,83c0,0.7,0.1,1.3,0.2,1.9
	C21.1,84.3,20,83.5,20,83z M32,90c-2.1,0-3.9-0.9-5.2-2.3c1.7,0.2,3.4,0.3,5.2,0.3c1.8,0,3.5-0.1,5.2-0.3C35.9,89.1,34.1,90,32,90z
	 M40.8,84.9c0.1-0.6,0.2-1.2,0.2-1.9c0-0.7-0.1-1.3-0.2-1.9c2.3,0.7,3.2,1.5,3.2,1.9C44,83.5,42.9,84.3,40.8,84.9z"/>
<path d="M68,11c1.7,0,3-1.3,3-3s-1.3-3-3-3s-3,1.3-3,3S66.3,11,68,11z M68,7c0.6,0,1,0.4,1,1s-0.4,1-1,1s-1-0.4-1-1S67.4,7,68,7z"/>
<path d="M43.1,68.6c0.1,0,0.1,0,0.2,0c0.5,0,0.9-0.3,1-0.8l0.2-1c0.5,0.1,1,0.1,1.5,0.2V68c0,0.6,0.4,1,1,1c0,0,0,0,0,0
	c0.6,0,1-0.4,1-1l0-1c0.5,0,1-0.1,1.5-0.2l0.2,1c0.1,0.5,0.5,0.8,1,0.8c0.1,0,0.1,0,0.2,0c0.5-0.1,0.9-0.6,0.8-1.2l-0.2-1
	c0.5-0.1,1-0.3,1.5-0.5l0.4,1c0.2,0.4,0.5,0.6,0.9,0.6c0.1,0,0.3,0,0.4-0.1c0.5-0.2,0.7-0.8,0.5-1.3l-0.4-1c0.5-0.2,0.9-0.5,1.3-0.8
	l0.6,0.8c0.2,0.3,0.5,0.4,0.8,0.4c0.2,0,0.4-0.1,0.6-0.2c0.4-0.3,0.5-0.9,0.2-1.4l-0.6-0.8c0.4-0.3,0.8-0.7,1.2-1l0.8,0.7
	c0.2,0.2,0.4,0.3,0.7,0.3c0.3,0,0.5-0.1,0.7-0.3c0.4-0.4,0.3-1-0.1-1.4l-0.8-0.7c0.3-0.4,0.6-0.8,0.9-1.3l0.9,0.5
	c0.2,0.1,0.3,0.1,0.5,0.1c0.3,0,0.7-0.2,0.9-0.5c0.3-0.5,0.1-1.1-0.4-1.4l-0.9-0.5c0.2-0.5,0.4-0.9,0.6-1.4l1,0.3c0.1,0,0.2,0,0.3,0
	c0.4,0,0.8-0.3,1-0.7c0.2-0.5-0.1-1.1-0.6-1.3l-1-0.3c0.1-0.5,0.2-1,0.3-1.5l1,0.1c0,0,0.1,0,0.1,0c0.5,0,0.9-0.4,1-0.9
	c0.1-0.5-0.3-1-0.9-1.1l-1-0.1c0-0.3,0-0.5,0-0.8s0-0.5,0-0.8l1-0.1c0.6-0.1,0.9-0.5,0.9-1.1s-0.5-0.9-1.1-0.9l-1,0.1
	c-0.1-0.5-0.2-1-0.3-1.5l1-0.3c0.5-0.2,0.8-0.7,0.6-1.3c-0.2-0.5-0.7-0.8-1.3-0.6l-1,0.3c-0.2-0.5-0.4-1-0.6-1.4l0.9-0.5
	c0.5-0.3,0.6-0.9,0.4-1.4s-0.9-0.6-1.4-0.4l-0.9,0.5c-0.3-0.4-0.6-0.9-0.9-1.3l0.8-0.7c0.4-0.4,0.4-1,0.1-1.4
	c-0.4-0.4-1-0.4-1.4-0.1l-0.8,0.7c-0.4-0.4-0.8-0.7-1.2-1l0.6-0.8c0.3-0.4,0.2-1.1-0.2-1.4c-0.4-0.3-1.1-0.2-1.4,0.2l-0.6,0.8
	c-0.4-0.3-0.9-0.5-1.3-0.8l0.4-1c0.2-0.5,0-1.1-0.5-1.3c-0.5-0.2-1.1,0-1.3,0.5l-0.4,1c-0.5-0.2-1-0.3-1.5-0.5l0.2-1
	c0.1-0.5-0.2-1.1-0.8-1.2c-0.5-0.1-1.1,0.2-1.2,0.8l-0.2,1c-0.5-0.1-1-0.1-1.5-0.2V32c0-0.6-0.4-1-1-1s-1,0.4-1,1v1.1
	c-0.5,0-1,0.1-1.5,0.2l-0.2-1c-0.1-0.5-0.6-0.9-1.2-0.8c-0.5,0.1-0.9,0.6-0.8,1.2l0.2,1c-0.5,0.1-1,0.3-1.5,0.5l-0.4-1
	c-0.2-0.5-0.8-0.7-1.3-0.5c-0.5,0.2-0.7,0.8-0.5,1.3l0.4,1c-0.5,0.2-0.9,0.5-1.3,0.8l-0.6-0.8c-0.3-0.4-1-0.5-1.4-0.2
	c-0.4,0.3-0.5,1-0.2,1.4l0.6,0.8c-0.4,0.3-0.8,0.7-1.2,1l-0.8-0.7c-0.4-0.4-1-0.3-1.4,0.1c-0.4,0.4-0.3,1,0.1,1.4l0.8,0.7
	c-0.3,0.4-0.6,0.8-0.9,1.3l-0.9-0.5c-0.5-0.3-1.1-0.1-1.4,0.4c-0.3,0.5-0.1,1.1,0.4,1.4l0.9,0.5c-0.2,0.5-0.4,0.9-0.6,1.4l-1-0.3
	c-0.5-0.2-1.1,0.1-1.3,0.6s0.1,1.1,0.6,1.3l1,0.3c-0.1,0.5-0.2,1-0.3,1.5l-1-0.1c-0.6-0.1-1,0.3-1.1,0.9s0.3,1,0.9,1.1l1,0.1
	c0,0.3,0,0.5,0,0.8c0,0.3,0,0.5,0,0.8l-1,0.1c-0.5,0.1-0.9,0.6-0.9,1.1c0.1,0.5,0.5,0.9,1,0.9c0,0,0.1,0,0.1,0l1-0.1
	c0.1,0.5,0.2,1,0.3,1.5l-1,0.3c-0.5,0.2-0.8,0.7-0.6,1.3c0.1,0.4,0.5,0.7,1,0.7c0.1,0,0.2,0,0.3,0l1-0.3c0.2,0.5,0.4,1,0.6,1.4
	l-0.9,0.5c-0.5,0.3-0.6,0.9-0.4,1.4c0.2,0.3,0.5,0.5,0.9,0.5c0.2,0,0.3,0,0.5-0.1l0.9-0.5c0.3,0.4,0.6,0.9,0.9,1.3L33,61.3
	c-0.4,0.4-0.4,1-0.1,1.4c0.2,0.2,0.5,0.3,0.7,0.3c0.2,0,0.5-0.1,0.7-0.3l0.8-0.7c0.4,0.4,0.8,0.7,1.2,1L35.6,64
	c-0.3,0.4-0.2,1.1,0.2,1.4c0.2,0.1,0.4,0.2,0.6,0.2c0.3,0,0.6-0.1,0.8-0.4l0.6-0.8c0.4,0.3,0.9,0.5,1.3,0.8l-0.4,1
	c-0.2,0.5,0,1.1,0.5,1.3c0.1,0.1,0.3,0.1,0.4,0.1c0.4,0,0.8-0.2,0.9-0.6l0.4-1c0.5,0.2,1,0.3,1.5,0.5l-0.2,1
	C42.2,67.9,42.5,68.5,43.1,68.6z M45.7,58.3c-0.4-0.4-1-0.4-1.4,0L39.6,63c-0.7-0.4-1.3-0.8-1.9-1.3c0,0,0,0,0,0l5-5
	c0.4-0.4,0.4-1,0-1.4s-1-0.4-1.4,0l-5,5c0,0,0,0.1-0.1,0.1c-0.5-0.5-1-1.1-1.5-1.8l4.9-4.9c0.4-0.4,0.4-1,0-1.4s-1-0.4-1.4,0
	l-4.6,4.6c-0.4-0.7-0.7-1.5-0.9-2.2l5-5c0.4-0.4,0.4-1,0-1.4s-1-0.4-1.4,0l-4.1,4.1c0-0.3-0.1-0.5-0.1-0.8c0,0,0,0,0,0c0,0,0,0,0,0
	C32,51,32,50.5,32,50c0-0.2,0-0.4,0-0.6l4.7-4.7c0.4-0.4,0.4-1,0-1.4s-1-0.4-1.4,0L32.5,46c1.7-6.4,7.6-11,14.5-11
	c1.1,0,2.1,0.1,3.1,0.3c0,0,0,0,0,0c0,0,0,0,0,0c6.3,1.3,11.1,6.6,11.8,13.1c0,0,0,0,0,0c0,0,0,0,0,0C62,49,62,49.5,62,50
	c0,0.5,0,1-0.1,1.5c0,0,0,0,0,0c0,0,0,0,0,0c-0.5,4.9-3.4,9.1-7.6,11.5l2.4-2.4c0.4-0.4,0.4-1,0-1.4s-1-0.4-1.4,0l-5,5
	c-0.1,0.1-0.2,0.2-0.2,0.4c-1,0.2-2,0.3-3,0.3c0,0,0,0,0,0c0,0,0,0,0,0c0,0,0,0,0,0c-0.2,0-0.4,0-0.5,0l4.3-4.3c0.4-0.4,0.4-1,0-1.4
	s-1-0.4-1.4,0l-5,5c-0.1,0.1-0.2,0.3-0.2,0.4c-0.1,0-0.1,0-0.2,0c0,0,0,0,0,0c0,0,0,0,0,0c-0.8-0.2-1.6-0.4-2.4-0.7l4.2-4.2
	C46.1,59.3,46.1,58.7,45.7,58.3z"/>
</svg>
